<?xml version="1.0" encoding="UTF-8"?>
<svg xmlns="http://www.w3.org/2000/svg" viewBox="0 0 960 460" font-family="Inter, system-ui, sans-serif">
  <defs>
    <marker id="ar2" markerWidth="10" markerHeight="10" refX="8" refY="3" orient="auto">
      <path d="M0,0 L0,6 L9,3 z" fill="#11141A"/>
    </marker>
  </defs>

  <rect width="960" height="460" fill="#FFFFFF"/>

  <text x="480" y="36" text-anchor="middle" font-size="22" font-weight="700" fill="#11141A">Two telemetry tracks</text>
  <text x="480" y="58" text-anchor="middle" font-size="13" fill="#6B7280">Numbers (events) and stories (sessions)</text>

  <!-- Track A: Events -->
  <text x="40" y="100" font-size="13" font-weight="700" fill="#F46800">TRACK A · EVENTS</text>

  <rect x="40" y="115" width="140" height="56" rx="10" fill="#F4F5F5" stroke="#D1D5DB"/>
  <text x="110" y="139" text-anchor="middle" font-size="13" font-weight="600" fill="#11141A">MTFF</text>
  <text x="110" y="158" text-anchor="middle" font-size="11" fill="#6B7280">Feature-flag service</text>

  <line x1="180" y1="143" x2="220" y2="143" stroke="#11141A" stroke-width="2" marker-end="url(#ar2)"/>

  <rect x="222" y="115" width="140" height="56" rx="10" fill="#F4F5F5" stroke="#D1D5DB"/>
  <text x="292" y="139" text-anchor="middle" font-size="13" font-weight="600" fill="#11141A">OFREP</text>
  <text x="292" y="158" text-anchor="middle" font-size="11" fill="#6B7280">Web provider</text>

  <line x1="362" y1="143" x2="402" y2="143" stroke="#11141A" stroke-width="2" marker-end="url(#ar2)"/>

  <rect x="404" y="115" width="160" height="56" rx="10" fill="#FFF1E5" stroke="#F46800"/>
  <text x="484" y="139" text-anchor="middle" font-size="13" font-weight="700" fill="#11141A">Pathfinder</text>
  <text x="484" y="158" text-anchor="middle" font-size="11" fill="#6B7280">experiment-variant</text>

  <!-- Variant lanes -->
  <line x1="564" y1="143" x2="610" y2="118" stroke="#11141A" stroke-width="1.5" marker-end="url(#ar2)"/>
  <line x1="564" y1="143" x2="610" y2="143" stroke="#11141A" stroke-width="1.5" marker-end="url(#ar2)"/>
  <line x1="564" y1="143" x2="610" y2="168" stroke="#11141A" stroke-width="1.5" marker-end="url(#ar2)"/>

  <rect x="612" y="98" width="120" height="32" rx="6" fill="#FFFFFF" stroke="#10B981"/>
  <text x="672" y="119" text-anchor="middle" font-size="12" fill="#10B981" font-weight="600">control</text>

  <rect x="612" y="132" width="120" height="32" rx="6" fill="#FFFFFF" stroke="#F46800"/>
  <text x="672" y="153" text-anchor="middle" font-size="12" fill="#F46800" font-weight="600">treatment</text>

  <rect x="612" y="166" width="120" height="32" rx="6" fill="#FFFFFF" stroke="#9CA3AF"/>
  <text x="672" y="187" text-anchor="middle" font-size="12" fill="#6B7280" font-weight="600">excluded</text>

  <line x1="734" y1="148" x2="780" y2="148" stroke="#11141A" stroke-width="2" marker-end="url(#ar2)"/>

  <rect x="782" y="115" width="140" height="56" rx="10" fill="#11141A"/>
  <text x="852" y="139" text-anchor="middle" font-size="13" font-weight="700" fill="#FFFFFF">RudderStack</text>
  <text x="852" y="158" text-anchor="middle" font-size="11" fill="#9CA3AF">analytics.ts</text>

  <!-- Divider -->
  <line x1="40" y1="240" x2="920" y2="240" stroke="#E5E7EB" stroke-dasharray="4,4"/>

  <!-- Track B: Sessions -->
  <text x="40" y="280" font-size="13" font-weight="700" fill="#F46800">TRACK B · SESSIONS (the videos)</text>

  <rect x="40" y="295" width="160" height="56" rx="10" fill="#FFF1E5" stroke="#F46800"/>
  <text x="120" y="319" text-anchor="middle" font-size="13" font-weight="700" fill="#11141A">Pathfinder UI</text>
  <text x="120" y="338" text-anchor="middle" font-size="11" fill="#6B7280">on learn.grafana.net</text>

  <line x1="200" y1="323" x2="240" y2="323" stroke="#11141A" stroke-width="2" marker-end="url(#ar2)"/>

  <rect x="242" y="295" width="220" height="56" rx="10" fill="#F4F5F5" stroke="#D1D5DB"/>
  <text x="352" y="319" text-anchor="middle" font-size="13" font-weight="600" fill="#11141A">Faro Web SDK</text>
  <text x="352" y="338" text-anchor="middle" font-size="11" fill="#6B7280">RUM · errors · web vitals</text>

  <line x1="462" y1="323" x2="502" y2="323" stroke="#11141A" stroke-width="2" marker-end="url(#ar2)"/>

  <rect x="504" y="295" width="220" height="56" rx="10" fill="#11141A"/>
  <text x="614" y="319" text-anchor="middle" font-size="13" font-weight="700" fill="#FFFFFF">Frontend Observability</text>
  <text x="614" y="338" text-anchor="middle" font-size="11" fill="#9CA3AF">session replays</text>

  <line x1="724" y1="323" x2="764" y2="323" stroke="#11141A" stroke-width="2" marker-end="url(#ar2)"/>

  <rect x="766" y="295" width="160" height="56" rx="10" fill="#FFF1E5" stroke="#F46800"/>
  <text x="846" y="319" text-anchor="middle" font-size="13" font-weight="700" fill="#11141A">"Watch them"</text>
  <text x="846" y="338" text-anchor="middle" font-size="11" fill="#6B7280">see where it breaks</text>

  <text x="40" y="396" font-size="11" fill="#6B7280">Track A is live · Track B is being re-enabled (CORS fix in flight — src/module.tsx)</text>

  <text x="40" y="430" font-size="11" font-weight="600" fill="#11141A">pathfinder.enabled</text>
  <text x="200" y="430" font-size="11" font-weight="600" fill="#11141A">pathfinder.auto-open-sidebar</text>
  <text x="430" y="430" font-size="11" font-weight="600" fill="#11141A">pathfinder.experiment-variant</text>
</svg>
